<svg width="1200" height="630" viewBox="0 0 1200 630" xmlns="http://www.w3.org/2000/svg">
  <defs>
    <linearGradient id="bg" x1="0%" y1="0%" x2="100%" y2="100%">
      <stop offset="0%" style="stop-color:#0a0a0a;stop-opacity:1" />
      <stop offset="100%" style="stop-color:#1a1a1a;stop-opacity:1" />
    </linearGradient>
    <linearGradient id="potato" x1="0%" y1="0%" x2="100%" y2="100%">
      <stop offset="0%" style="stop-color:#FF6B00;stop-opacity:1" />
      <stop offset="100%" style="stop-color:#FF8533;stop-opacity:1" />
    </linearGradient>
    <linearGradient id="glow" x1="0%" y1="0%" x2="100%" y2="100%">
      <stop offset="0%" style="stop-color:#FF6B00;stop-opacity:0.3" />
      <stop offset="100%" style="stop-color:#FF6B00;stop-opacity:0" />
    </linearGradient>
  </defs>
  
  <!-- Background -->
  <rect width="1200" height="630" fill="url(#bg)"/>
  
  <!-- Background Pattern -->
  <circle cx="200" cy="150" r="80" fill="url(#glow)"/>
  <circle cx="1000" cy="480" r="120" fill="url(#glow)"/>
  <circle cx="800" cy="100" r="60" fill="url(#glow)"/>
  
  <!-- Main Potato -->
  <ellipse cx="600" cy="315" rx="200" ry="130" fill="url(#potato)" stroke="#FF4500" stroke-width="8"/>
  
  <!-- Potato Eyes -->
  <circle cx="540" cy="295" r="30" fill="#1a1a1a"/>
  <circle cx="660" cy="295" r="30" fill="#1a1a1a"/>
  <circle cx="540" cy="295" r="15" fill="#FF6B00"/>
  <circle cx="660" cy="295" r="15" fill="#FF6B00"/>
  
  <!-- Potato Mouth -->
  <path d="M 560 340 Q 600 380 640 340" stroke="#1a1a1a" stroke-width="6" fill="none"/>
  
  <!-- Steam Lines -->
  <path d="M 600 185 Q 560 135 520 165" stroke="#FF6B00" stroke-width="6" fill="none" opacity="0.8"/>
  <path d="M 600 185 Q 640 135 680 165" stroke="#FF6B00" stroke-width="6" fill="none" opacity="0.8"/>
  <path d="M 600 185 Q 580 145 560 175" stroke="#FF6B00" stroke-width="4" fill="none" opacity="0.6"/>
  <path d="M 600 185 Q 620 145 640 175" stroke="#FF6B00" stroke-width="4" fill="none" opacity="0.6"/>
  
  <!-- Title -->
  <text x="600" y="500" text-anchor="middle" font-family="monospace" font-size="72" font-weight="bold" fill="#FF6B00">HOT POTATO</text>
  <text x="600" y="540" text-anchor="middle" font-family="monospace" font-size="32" fill="#ffffff">Steal the potato, grow the pot!</text>
  <text x="600" y="570" text-anchor="middle" font-family="monospace" font-size="24" fill="#888">A fun blockchain game on Base</text>
  
  <!-- Decorative Elements -->
  <text x="150" y="100" font-family="monospace" font-size="24" fill="#FF6B00" opacity="0.7">🔥</text>
  <text x="1050" y="150" font-family="monospace" font-size="24" fill="#FF6B00" opacity="0.7">🥔</text>
  <text x="100" y="500" font-family="monospace" font-size="24" fill="#FF6B00" opacity="0.7">⚡</text>
  <text x="1100" y="500" font-family="monospace" font-size="24" fill="#FF6B00" opacity="0.7">🌶️</text>
</svg>
