<svg width="1284" height="2778" viewBox="0 0 1284 2778" xmlns="http://www.w3.org/2000/svg">
  <defs>
    <linearGradient id="bg" x1="0%" y1="0%" x2="100%" y2="100%">
      <stop offset="0%" style="stop-color:#0a0a0a;stop-opacity:1" />
      <stop offset="100%" style="stop-color:#1a1a1a;stop-opacity:1" />
    </linearGradient>
    <linearGradient id="card" x1="0%" y1="0%" x2="100%" y2="100%">
      <stop offset="0%" style="stop-color:#1e1e1e;stop-opacity:1" />
      <stop offset="100%" style="stop-color:#2d2d2d;stop-opacity:1" />
    </linearGradient>
    <linearGradient id="potato" x1="0%" y1="0%" x2="100%" y2="100%">
      <stop offset="0%" style="stop-color:#FF6B00;stop-opacity:1" />
      <stop offset="100%" style="stop-color:#FF8533;stop-opacity:1" />
    </linearGradient>
  </defs>
  
  <!-- Background -->
  <rect width="1284" height="2778" fill="url(#bg)"/>
  
  <!-- Header -->
  <rect x="0" y="0" width="1284" height="120" fill="#1a1a1a"/>
  <text x="642" y="70" text-anchor="middle" font-family="monospace" font-size="32" font-weight="bold" fill="#FF6B00">HOT POTATO</text>
  
  <!-- Main Game Card -->
  <rect x="142" y="200" width="1000" height="800" rx="20" fill="url(#card)" stroke="#FF6B00" stroke-width="3"/>
  
  <!-- Potato Display -->
  <ellipse cx="642" cy="500" rx="150" ry="100" fill="url(#potato)" stroke="#FF4500" stroke-width="6"/>
  <circle cx="580" cy="480" r="20" fill="#1a1a1a"/>
  <circle cx="704" cy="480" r="20" fill="#1a1a1a"/>
  <circle cx="580" cy="480" r="10" fill="#FF6B00"/>
  <circle cx="704" cy="480" r="10" fill="#FF6B00"/>
  <path d="M 600 520 Q 642 560 684 520" stroke="#1a1a1a" stroke-width="4" fill="none"/>
  
  <!-- Game Stats -->
  <text x="642" y="680" text-anchor="middle" font-family="monospace" font-size="48" font-weight="bold" fill="#FF6B00">POT: $12.45</text>
  <text x="642" y="730" text-anchor="middle" font-family="monospace" font-size="36" fill="#ffffff">STEALS: 42</text>
  
  <!-- Steal Button -->
  <rect x="442" y="800" width="400" height="80" rx="40" fill="#FF6B00"/>
  <text x="642" y="850" text-anchor="middle" font-family="monospace" font-size="32" font-weight="bold" fill="#ffffff">STEAL POTATO</text>
  
  <!-- Navigation -->
  <rect x="142" y="1100" width="300" height="80" rx="20" fill="#2d2d2d"/>
  <text x="292" y="1150" text-anchor="middle" font-family="monospace" font-size="24" fill="#ffffff">LEADERBOARD</text>
  
  <rect x="492" y="1100" width="300" height="80" rx="20" fill="#2d2d2d"/>
  <text x="642" y="1150" text-anchor="middle" font-family="monospace" font-size="24" fill="#ffffff">ABOUT</text>
  
  <rect x="842" y="1100" width="300" height="80" rx="20" fill="#2d2d2d"/>
  <text x="992" y="1150" text-anchor="middle" font-family="monospace" font-size="24" fill="#ffffff">DIARY</text>
  
  <!-- Recent Activity -->
  <rect x="142" y="1250" width="1000" height="400" rx="20" fill="url(#card)" stroke="#333" stroke-width="2"/>
  <text x="642" y="1300" text-anchor="middle" font-family="monospace" font-size="28" font-weight="bold" fill="#FF6B00">RECENT DIARY</text>
  
  <text x="162" y="1350" font-family="monospace" font-size="20" fill="#ffffff">@alice stole the potato!</text>
  <text x="162" y="1380" font-family="monospace" font-size="16" fill="#888">"Got it! 🔥"</text>
  
  <text x="162" y="1420" font-family="monospace" font-size="20" fill="#ffffff">@bob stole the potato!</text>
  <text x="162" y="1450" font-family="monospace" font-size="16" fill="#888">"My turn now! 🥔"</text>
  
  <text x="162" y="1490" font-family="monospace" font-size="20" fill="#ffffff">@charlie stole the potato!</text>
  <text x="162" y="1520" font-family="monospace" font-size="16" fill="#888">"This is getting hot! 🌶️"</text>
  
  <!-- Footer -->
  <rect x="0" y="2700" width="1284" height="78" fill="#1a1a1a"/>
  <text x="642" y="2740" text-anchor="middle" font-family="monospace" font-size="16" fill="#888">Hot Potato Game - Steal the potato, grow the pot!</text>
</svg>
